<?xml version="1.0" encoding="UTF-8" standalone="no"?><!DOCTYPE svg PUBLIC "-//W3C//DTD SVG 1.1//EN" "http://www.w3.org/Graphics/SVG/1.1/DTD/svg11.dtd"><svg width="1519px" height="268px" version="1.1" xmlns="http://www.w3.org/2000/svg" xmlns:xlink="http://www.w3.org/1999/xlink" xml:space="preserve" xmlns:serif="http://www.serif.com/" style="fill-rule:evenodd;clip-rule:evenodd;stroke-linejoin:round;stroke-miterlimit:2;"><g transform="matrix(1,0,0,1,-674.407,-1610.68)"><g transform="matrix(4.16667,0,0,4.16667,0,0)"><g transform="matrix(1,0,0,1,268.386,431.996)"><path d="M0,-28.033L-9.052,-28.033L-28.999,-8.612L-28.999,-45.432L-36.117,-45.432L-36.117,17.399L-28.999,17.399L-28.999,-0.792L-22.32,-7.119L-6.239,17.399L2.108,17.399L-17.399,-11.688L0,-28.033Z" style="fill:rgb(1,2,3);fill-rule:nonzero;"/></g></g><g transform="matrix(4.16667,0,0,4.16667,0,0)"><g transform="matrix(1,0,0,1,-5.66928,-11.602)"><rect x="281.617" y="398.165" width="7.118" height="62.831" style="fill:rgb(1,2,3);"/></g></g><g transform="matrix(4.16667,0,0,4.16667,0,0)"><g transform="matrix(1,0,0,1,382.488,449.394)"><path d="M0,-46.486C-5.536,-46.486 -10.984,-43.586 -13.885,-38.401L-14.061,-38.401C-15.993,-43.673 -20.388,-46.486 -25.924,-46.486C-31.636,-46.486 -36.469,-43.322 -39.28,-38.928L-39.456,-38.928L-39.456,-45.431L-46.574,-45.431L-46.574,0L-39.456,0L-39.456,-28.296C-39.456,-35.414 -33.305,-40.51 -27.769,-40.51C-23.111,-40.51 -19.948,-37.171 -19.948,-31.547L-19.948,0L-12.83,0L-12.83,-28.296C-12.83,-35.414 -7.558,-40.51 -1.67,-40.51C2.899,-40.51 6.679,-37.171 6.679,-31.547L6.679,0L13.796,0L13.796,-31.898C13.796,-41.301 8.084,-46.486 0,-46.486" style="fill:rgb(1,2,3);fill-rule:nonzero;"/></g></g><g transform="matrix(4.16667,0,0,4.16667,0,0)"><g transform="matrix(1,0,0,1,477.788,449.395)"><path d="M0,-45.432L-9.578,-16.609C-10.896,-12.655 -12.566,-7.031 -12.566,-7.031L-12.742,-7.031C-12.742,-7.031 -14.411,-12.567 -15.729,-16.609L-25.132,-45.432L-32.777,-45.432L-16.872,0L-8.963,0L7.382,-45.432L0,-45.432Z" style="fill:rgb(1,2,3);fill-rule:nonzero;"/></g></g><g transform="matrix(4.16667,0,0,4.16667,0,0)"><g transform="matrix(1,0,0,1,226.785,433.847)"><path d="M0,-13.845C-0.398,-15.598 -0.923,-17.248 -1.58,-18.776C-4.778,-26.225 -11.011,-30.825 -20.004,-30.825C-32.922,-30.825 -41.533,-20.104 -41.533,-6.923C-41.533,-6.839 -41.527,-6.757 -41.526,-6.673L-34.348,-6.673C-34.345,-7.959 -34.26,-9.275 -34.064,-10.613C-33.01,-18.874 -28.44,-25.201 -20.004,-25.201C-13.341,-25.201 -9.017,-21.519 -7.408,-15.253L-32.7,2.158L-38.422,6.097C-37.556,7.694 -36.515,9.158 -35.308,10.461C-31.568,14.498 -26.239,16.98 -19.564,16.98C-9.283,16.98 -2.165,11.444 -0.057,1.69L-6.999,1.69C-8.58,7.84 -12.974,11.004 -19.564,11.004C-19.779,11.004 -23.744,10.947 -27.051,9.007C-28.086,8.4 -29.025,7.625 -29.86,6.71L-6.678,-9.248L0,-13.845Z" style="fill:rgb(1,2,3);fill-rule:nonzero;"/></g></g><g transform="matrix(4.16667,0,0,4.16667,0,0)"><g transform="matrix(1,0,0,1,325.774,414.244)"><path d="M0,24.869L0,18.718L-6.433,18.718C-6.617,23.943 -10.928,30.581 -20.211,30.581C-24.869,30.581 -29.614,29.263 -29.614,23.199C-29.614,21.459 -29.227,20.088 -28.527,18.99C-26.764,16.222 -23.435,15.377 -16.784,13.973C-13.579,13.296 -10.055,12.757 -5.651,11.057C-4.667,10.677 -3.241,10.086 -2.03,8.697C-0.344,6.762 -0.043,4.47 0,3.252C0.058,1.619 0.043,-2.798 -3.02,-6.371C-5.987,-9.832 -10.916,-11.16 -16.784,-11.16C-28.823,-11.16 -34.623,-4.569 -34.887,4.218L-28.032,4.218C-27.769,-2.636 -24.078,-5.8 -16.696,-5.8C-10.193,-5.8 -6.503,-2.9 -6.503,2.197C-6.503,7.118 -10.984,7.733 -17.399,8.7C-28.735,10.457 -37.171,12.654 -37.171,23.375C-37.171,31.987 -30.405,36.029 -21.793,36.029C-14.06,36.029 -9.402,32.339 -6.679,28.823L-6.591,28.823C-5.888,33.48 -3.427,35.59 1.23,35.59C2.783,35.59 3.835,35.34 4.655,35.052L4.655,29.735C0.858,30.51 0,28.501 0,24.869" style="fill:rgb(1,2,3);fill-rule:nonzero;"/></g></g><g transform="matrix(4.16667,0,0,4.16667,0,0)"><g transform="matrix(1,0,0,1,521.625,414.244)"><path d="M0,24.869L0,18.718L-6.433,18.718C-6.617,23.943 -10.928,30.581 -20.211,30.581C-24.869,30.581 -29.614,29.263 -29.614,23.199C-29.614,21.459 -29.227,20.088 -28.527,18.99C-26.764,16.222 -23.435,15.377 -16.784,13.973C-13.579,13.296 -10.055,12.757 -5.651,11.057C-4.667,10.677 -3.241,10.086 -2.03,8.697C-0.344,6.762 -0.043,4.47 0,3.252C0.058,1.619 0.043,-2.798 -3.02,-6.371C-5.987,-9.832 -10.916,-11.16 -16.784,-11.16C-28.823,-11.16 -34.623,-4.569 -34.887,4.218L-28.032,4.218C-27.769,-2.636 -24.078,-5.8 -16.696,-5.8C-10.193,-5.8 -6.503,-2.9 -6.503,2.197C-6.503,7.118 -10.984,7.733 -17.399,8.7C-28.735,10.457 -37.171,12.654 -37.171,23.375C-37.171,31.987 -30.405,36.029 -21.793,36.029C-14.06,36.029 -9.402,32.339 -6.679,28.823L-6.591,28.823C-5.888,33.48 -3.427,35.59 1.23,35.59C2.783,35.59 3.835,35.34 4.655,35.052L4.655,29.735C0.858,30.51 0,28.501 0,24.869" style="fill:rgb(1,2,3);fill-rule:nonzero;"/></g></g><g transform="matrix(4.16667,0,0,4.16667,0,0)"><g transform="matrix(1,0,0,1,423.423,408.981)"><path d="M0,35.372C-9.538,35.372 -14.479,27.569 -14.479,17.685C-14.479,7.802 -9.538,-0.088 0,-0.088C9.537,-0.088 14.392,7.802 14.392,17.685C14.392,27.569 9.537,35.372 0,35.372M0,-5.896C-13.352,-5.896 -21.674,4.681 -21.674,17.685C-21.674,30.69 -13.352,41.268 0,41.268C13.438,41.268 21.588,30.69 21.588,17.685C21.588,4.681 13.438,-5.896 0,-5.896" style="fill:rgb(1,2,3);fill-rule:nonzero;"/></g></g><g transform="matrix(4.16667,0,0,4.16667,0,0)"><g transform="matrix(1,0,0,1,178.335,449.395)"><path d="M0,-46.301C-9.085,-46.3 -16.477,-38.909 -16.477,-29.823L-16.477,0L-9.348,0L-9.348,-29.823C-9.348,-34.979 -5.154,-39.172 0.001,-39.172L4.168,-39.172L4.168,-46.301L0,-46.301Z" style="fill:rgb(1,2,3);fill-rule:nonzero;"/></g></g></g></svg>