<?xml version="1.0" encoding="UTF-8" standalone="no"?>
<!DOCTYPE svg PUBLIC "-//W3C//DTD SVG 1.1//EN" "http://www.w3.org/Graphics/SVG/1.1/DTD/svg11.dtd">
<svg width="100%" height="100%" viewBox="0 0 17144 5981" version="1.1" xmlns="http://www.w3.org/2000/svg" xmlns:xlink="http://www.w3.org/1999/xlink" xml:space="preserve" xmlns:serif="http://www.serif.com/" style="fill-rule:evenodd;clip-rule:evenodd;stroke-linejoin:round;stroke-miterlimit:2;">
    <g transform="matrix(1,0,0,1,-30126.2,-1356.44)">
        <g transform="matrix(1.33333,0,0,0.8,26887.2,0)">
            <g transform="matrix(1,0,0,1.25,0,-286.208)">
                <g transform="matrix(2637.75,0,0,3517,6870.34,4786.45)">
                    <path d="M0.897,-0L0.895,-0.7L0.701,-0.7L0.479,-0.327L0.251,-0.7L0.057,-0.7L0.057,-0L0.272,-0L0.272,-0.308L0.424,-0.063L0.528,-0.063L0.68,-0.319L0.682,-0L0.897,-0Z" style="fill:rgb(39,35,36);fill-rule:nonzero;"/>
                </g>
                <g transform="matrix(2637.75,0,0,3517,9386.75,4786.45)">
                    <path d="M0.289,-0.178L0.289,-0.27L0.585,-0.27L0.585,-0.44L0.289,-0.44L0.289,-0.522L0.626,-0.522L0.626,-0.7L0.057,-0.7L0.057,-0L0.639,-0L0.639,-0.178L0.289,-0.178Z" style="fill:rgb(39,35,36);fill-rule:nonzero;"/>
                </g>
                <g transform="matrix(2637.75,0,0,3517,11162,4786.45)">
                    <path d="M0.476,-0L0.728,-0L0.581,-0.216C0.665,-0.259 0.713,-0.335 0.713,-0.436C0.713,-0.598 0.589,-0.7 0.394,-0.7L0.057,-0.7L0.057,-0L0.293,-0L0.293,-0.176L0.357,-0.176L0.476,-0ZM0.475,-0.436C0.475,-0.385 0.444,-0.354 0.379,-0.354L0.293,-0.354L0.293,-0.518L0.379,-0.518C0.444,-0.518 0.475,-0.487 0.475,-0.436Z" style="fill:rgb(39,35,36);fill-rule:nonzero;"/>
                </g>
                <g transform="matrix(2637.75,0,0,3517,13127.1,4786.45)">
                    <path d="M0.424,0.016C0.652,0.016 0.819,-0.138 0.819,-0.35C0.819,-0.562 0.652,-0.716 0.424,-0.716C0.196,-0.716 0.029,-0.562 0.029,-0.35C0.029,-0.138 0.196,0.016 0.424,0.016ZM0.424,-0.175C0.337,-0.175 0.267,-0.241 0.267,-0.35C0.267,-0.459 0.337,-0.525 0.424,-0.525C0.511,-0.525 0.581,-0.459 0.581,-0.35C0.581,-0.241 0.511,-0.175 0.424,-0.175Z" style="fill:rgb(39,35,36);fill-rule:nonzero;"/>
                </g>
                <g transform="matrix(609.522,0,0,812.695,6970.29,6203.58)">
                    <path d="M0.872,-0L0.87,-0.7L0.737,-0.7L0.479,-0.265L0.217,-0.7L0.083,-0.7L0.083,-0L0.235,-0L0.235,-0.411L0.44,-0.074L0.513,-0.074L0.719,-0.42L0.72,-0L0.872,-0Z" style="fill:rgb(241,90,34);fill-rule:nonzero;"/>
                </g>
                <g transform="matrix(609.522,0,0,812.695,7558.48,6203.58)">
                    <path d="M0.606,-0L0.776,-0L0.463,-0.7L0.303,-0.7L-0.009,-0L0.157,-0L0.219,-0.15L0.544,-0.15L0.606,-0ZM0.271,-0.273L0.382,-0.541L0.493,-0.273L0.271,-0.273Z" style="fill:rgb(241,90,34);fill-rule:nonzero;"/>
                </g>
                <g transform="matrix(609.522,0,0,812.695,8010.13,6203.58)">
                    <path d="M0.228,-0L0.39,-0L0.39,-0.568L0.614,-0.568L0.614,-0.7L0.004,-0.7L0.004,-0.568L0.228,-0.568L0.228,-0Z" style="fill:rgb(241,90,34);fill-rule:nonzero;"/>
                </g>
                <g transform="matrix(609.522,0,0,812.695,8392.91,6203.58)">
                    <path d="M0.244,-0.13L0.244,-0.292L0.569,-0.292L0.569,-0.418L0.244,-0.418L0.244,-0.57L0.612,-0.57L0.612,-0.7L0.083,-0.7L0.083,-0L0.625,-0L0.625,-0.13L0.244,-0.13Z" style="fill:rgb(241,90,34);fill-rule:nonzero;"/>
                </g>
                <g transform="matrix(609.522,0,0,812.695,8807.99,6203.58)">
                    <path d="M0.703,-0L0.546,-0.225C0.637,-0.264 0.69,-0.341 0.69,-0.446C0.69,-0.603 0.573,-0.7 0.386,-0.7L0.083,-0.7L0.083,-0L0.245,-0L0.245,-0.195L0.394,-0.195L0.529,-0L0.703,-0ZM0.526,-0.446C0.526,-0.37 0.476,-0.324 0.377,-0.324L0.245,-0.324L0.245,-0.568L0.377,-0.568C0.476,-0.568 0.526,-0.523 0.526,-0.446Z" style="fill:rgb(241,90,34);fill-rule:nonzero;"/>
                </g>
                <g transform="matrix(609.522,0,0,812.695,9262.09,6203.58)">
                    <rect x="0.083" y="-0.7" width="0.162" height="0.7" style="fill:rgb(241,90,34);fill-rule:nonzero;"/>
                </g>
                <g transform="matrix(609.522,0,0,812.695,9468.11,6203.58)">
                    <path d="M0.606,-0L0.776,-0L0.463,-0.7L0.303,-0.7L-0.009,-0L0.157,-0L0.219,-0.15L0.544,-0.15L0.606,-0ZM0.271,-0.273L0.382,-0.541L0.493,-0.273L0.271,-0.273Z" style="fill:rgb(241,90,34);fill-rule:nonzero;"/>
                </g>
                <g transform="matrix(609.522,0,0,812.695,9941.09,6203.58)">
                    <path d="M0.258,-0.132L0.258,-0.387L0.42,-0.508L0.362,-0.586L0.258,-0.508L0.258,-0.7L0.096,-0.7L0.096,-0.387L-0.014,-0.304L0.044,-0.226L0.096,-0.265L0.096,-0L0.609,-0L0.609,-0.132L0.258,-0.132Z" style="fill:rgb(241,90,34);fill-rule:nonzero;"/>
                </g>
                <g transform="matrix(609.522,0,0,812.695,10279.4,6203.58)">
                    <path d="M0.691,-0.7L0.532,-0.7L0.345,-0.389L0.158,-0.7L-0.014,-0.7L0.257,-0.25L0.257,-0L0.419,-0L0.419,-0.248L0.691,-0.7Z" style="fill:rgb(241,90,34);fill-rule:nonzero;"/>
                </g>
                <g transform="matrix(609.522,0,0,812.695,10876.1,6203.58)">
                    <path d="M0.597,-0.364C0.654,-0.394 0.69,-0.448 0.69,-0.518C0.69,-0.627 0.6,-0.7 0.425,-0.7L0.083,-0.7L0.083,-0L0.445,-0C0.629,-0 0.725,-0.07 0.725,-0.191C0.725,-0.279 0.675,-0.339 0.597,-0.364ZM0.405,-0.578C0.484,-0.578 0.527,-0.551 0.527,-0.496C0.527,-0.441 0.484,-0.413 0.405,-0.413L0.244,-0.413L0.244,-0.578L0.405,-0.578ZM0.433,-0.122L0.244,-0.122L0.244,-0.295L0.433,-0.295C0.517,-0.295 0.562,-0.267 0.562,-0.208C0.562,-0.148 0.517,-0.122 0.433,-0.122Z" style="fill:rgb(241,90,34);fill-rule:nonzero;"/>
                </g>
                <g transform="matrix(609.522,0,0,812.695,11348.5,6203.58)">
                    <path d="M0.394,0.012C0.593,0.012 0.711,-0.102 0.711,-0.308L0.711,-0.7L0.551,-0.7L0.551,-0.314C0.551,-0.181 0.494,-0.126 0.395,-0.126C0.297,-0.126 0.239,-0.181 0.239,-0.314L0.239,-0.7L0.077,-0.7L0.077,-0.308C0.077,-0.102 0.195,0.012 0.394,0.012Z" style="fill:rgb(241,90,34);fill-rule:nonzero;"/>
                </g>
                <g transform="matrix(609.522,0,0,812.695,11834.9,6203.58)">
                    <path d="M0.083,-0L0.401,-0C0.63,-0 0.787,-0.138 0.787,-0.35C0.787,-0.562 0.63,-0.7 0.401,-0.7L0.083,-0.7L0.083,-0ZM0.245,-0.133L0.245,-0.567L0.393,-0.567C0.532,-0.567 0.623,-0.484 0.623,-0.35C0.623,-0.216 0.532,-0.133 0.393,-0.133L0.245,-0.133Z" style="fill:rgb(241,90,34);fill-rule:nonzero;"/>
                </g>
                <g transform="matrix(609.522,0,0,812.695,12344.4,6203.58)">
                    <path d="M0.422,0.012C0.642,0.012 0.805,-0.141 0.805,-0.35C0.805,-0.559 0.642,-0.712 0.422,-0.712C0.201,-0.712 0.039,-0.558 0.039,-0.35C0.039,-0.142 0.201,0.012 0.422,0.012ZM0.422,-0.126C0.297,-0.126 0.203,-0.217 0.203,-0.35C0.203,-0.483 0.297,-0.574 0.422,-0.574C0.547,-0.574 0.641,-0.483 0.641,-0.35C0.641,-0.217 0.547,-0.126 0.422,-0.126Z" style="fill:rgb(241,90,34);fill-rule:nonzero;"/>
                </g>
                <g transform="matrix(609.522,0,0,812.695,12851,6203.58)">
                    <path d="M0.986,-0.7L0.823,-0.204L0.663,-0.7L0.513,-0.7L0.348,-0.208L0.19,-0.7L0.022,-0.7L0.252,-0L0.425,-0L0.584,-0.474L0.738,-0L0.912,-0L1.141,-0.7L0.986,-0.7Z" style="fill:rgb(241,90,34);fill-rule:nonzero;"/>
                </g>
                <g transform="matrix(609.522,0,0,812.695,13556.8,6203.58)">
                    <path d="M0.083,-0L0.596,-0L0.596,-0.132L0.245,-0.132L0.245,-0.7L0.083,-0.7L0.083,-0Z" style="fill:rgb(241,90,34);fill-rule:nonzero;"/>
                </g>
                <g transform="matrix(609.522,0,0,812.695,13934.7,6203.58)">
                    <path d="M0.606,-0L0.776,-0L0.463,-0.7L0.303,-0.7L-0.009,-0L0.157,-0L0.219,-0.15L0.544,-0.15L0.606,-0ZM0.271,-0.273L0.382,-0.541L0.493,-0.273L0.271,-0.273Z" style="fill:rgb(241,90,34);fill-rule:nonzero;"/>
                </g>
                <g transform="matrix(609.522,0,0,812.695,14407.7,6203.58)">
                    <path d="M0.565,-0.7L0.565,-0.275L0.217,-0.7L0.083,-0.7L0.083,-0L0.243,-0L0.243,-0.425L0.592,-0L0.725,-0L0.725,-0.7L0.565,-0.7Z" style="fill:rgb(241,90,34);fill-rule:nonzero;"/>
                </g>
                <g transform="matrix(609.522,0,0,812.695,14906.3,6203.58)">
                    <path d="M0.244,-0.13L0.244,-0.292L0.569,-0.292L0.569,-0.418L0.244,-0.418L0.244,-0.57L0.612,-0.57L0.612,-0.7L0.083,-0.7L0.083,-0L0.625,-0L0.625,-0.13L0.244,-0.13Z" style="fill:rgb(241,90,34);fill-rule:nonzero;"/>
                </g>
                <g transform="matrix(10.0975,0,0,13.4633,1225.52,-512.51)">
                    <path d="M478.769,407.209L341.436,448.486L341.436,155.825L478.769,175.335L478.769,407.209Z" style="fill:rgb(39,35,36);fill-rule:nonzero;"/>
                </g>
                <g transform="matrix(10.0975,0,0,13.4633,1225.52,-512.51)">
                    <path d="M119.31,407.209L327.926,448.486L327.926,155.825L119.31,218.857L119.31,407.209Z" style="fill:rgb(167,169,172);fill-rule:nonzero;"/>
                </g>
                <g transform="matrix(10.0975,0,0,13.4633,1225.52,-512.51)">
                    <path d="M119.216,542.293L327.926,600.069L327.926,461.991L119.216,420.712L119.216,542.293Z" style="fill:rgb(249,169,127);fill-rule:nonzero;"/>
                </g>
                <g transform="matrix(10.0975,0,0,13.4633,1225.52,-512.51)">
                    <path d="M341.436,600.069L478.769,534.789L478.769,420.71L341.436,461.991L341.436,600.069Z" style="fill:rgb(241,90,34);fill-rule:nonzero;"/>
                </g>
            </g>
        </g>
    </g>
</svg>
